<svg xmlns="http://www.w3.org/2000/svg">
  <symbol id="ledger-workspace" viewBox="0 0 24 24" fill="none" stroke="currentColor" stroke-width="1.6" stroke-linecap="round" stroke-linejoin="round">
    <path d="M3.5 7.5h6l2-2h4l2 2h3v11a1.5 1.5 0 0 1-1.5 1.5H5a1.5 1.5 0 0 1-1.5-1.5Z"/>
    <path d="M3.5 10.5h17M7 14h4m-4 3h7"/>
  </symbol>
  <symbol id="ledger-questionnaires" viewBox="0 0 24 24" fill="none" stroke="currentColor" stroke-width="1.6" stroke-linecap="round" stroke-linejoin="round">
    <path d="M4 4.5h12a2 2 0 0 1 2 2v7a2 2 0 0 1-2 2H9l-4 3v-3H4a2 2 0 0 1-2-2v-7a2 2 0 0 1 2-2Z"/>
    <path d="M7 8h6m-6 3h4M17 17h3l2 2v-7a2 2 0 0 0-2-2"/>
  </symbol>
  <symbol id="ledger-stimuli" viewBox="0 0 24 24" fill="none" stroke="currentColor" stroke-width="1.6" stroke-linecap="round" stroke-linejoin="round">
    <rect x="3" y="3.5" width="7" height="5" rx="1"/>
    <rect x="14" y="9.5" width="7" height="5" rx="1"/>
    <rect x="3" y="15.5" width="7" height="5" rx="1"/>
    <path d="m5.5 5 2 1-2 1Zm4.5 1h2a2 2 0 0 1 2 2v1.5m0 5V17a2 2 0 0 1-2 2h-2m6.5-8 2 1-2 1Z"/>
  </symbol>
  <symbol id="ledger-layout" viewBox="0 0 24 24" fill="none" stroke="currentColor" stroke-width="1.6" stroke-linecap="round" stroke-linejoin="round">
    <rect x="2.5" y="4" width="19" height="14" rx="1.5"/>
    <path d="M12 4v14M2.5 11h19M8 21h8m-4-3v3"/>
    <path d="M7 7.5h1m8 7h1"/>
  </symbol>
  <symbol id="ledger-feedback" viewBox="0 0 24 24" fill="none" stroke="currentColor" stroke-width="1.6" stroke-linecap="round" stroke-linejoin="round">
    <path d="M7.2 7.1c2.7-2.9 8.5-1.5 9.7 2.2 1.3 3.9-2.1 8.5-6.2 8.1-4.6-.4-6.5-6.9-3.5-10.3Z"/>
    <circle cx="12" cy="12" r="1.2"/>
    <path d="M12 2v3m0 14v3M2 12h3m14 0h3m-1.8-8.2-2.1 2.1M5.9 18.1l-2.1 2.1"/>
  </symbol>
  <symbol id="ledger-xr" viewBox="0 0 24 24" fill="none" stroke="currentColor" stroke-width="1.6" stroke-linecap="round" stroke-linejoin="round">
    <path d="M4.5 7.5h15l2 3v5.2a2.3 2.3 0 0 1-4.1 1.4l-2.1-2.6H8.7l-2.1 2.6a2.3 2.3 0 0 1-4.1-1.4v-5.2Z"/>
    <path d="M9 11h6M7 4h10"/>
    <circle cx="7" cy="12" r="1"/>
    <circle cx="17" cy="12" r="1"/>
  </symbol>
  <symbol id="ledger-review" viewBox="0 0 24 24" fill="none" stroke="currentColor" stroke-width="1.6" stroke-linecap="round" stroke-linejoin="round">
    <path d="M14 3.5H6a2 2 0 0 0-2 2v13a2 2 0 0 0 2 2h7"/>
    <path d="M14 3.5v5h5M8 12l1.3 1.3L12 10.5M8 17h4m4-4h5m-2.5-2.5L21 13l-2.5 2.5"/>
  </symbol>
</svg>
