<?xml version="1.0" encoding="UTF-8"?>
<svg xmlns="http://www.w3.org/2000/svg" viewBox="0 0 1024 1024" role="img" aria-labelledby="title description" data-concept="04-echo-pair" shape-rendering="geometricPrecision">
  <title id="title">Affect Research — Echo Pair app logo</title>
  <desc id="description">Two open coral and teal Flubber traces overlap like a continuous signal on a warm light tile.</desc>
  <defs>
    <linearGradient id="background" x1="110" y1="90" x2="900" y2="930" gradientUnits="userSpaceOnUse">
      <stop offset="0" stop-color="#fafbf6"/>
      <stop offset="1" stop-color="#dfe9e4"/>
    </linearGradient>
    <linearGradient id="warm-line" x1="120" y1="250" x2="620" y2="780" gradientUnits="userSpaceOnUse">
      <stop offset="0" stop-color="#ffb347"/>
      <stop offset="1" stop-color="#ef4f65"/>
    </linearGradient>
    <linearGradient id="cool-line" x1="400" y1="210" x2="890" y2="800" gradientUnits="userSpaceOnUse">
      <stop offset="0" stop-color="#34d6a0"/>
      <stop offset="1" stop-color="#3f6ee8"/>
    </linearGradient>
    <clipPath id="echo-left" clipPathUnits="userSpaceOnUse">
      <path d="M1.1845,0.0000L1.1644,0.0381L1.1280,0.0739L1.0821,0.1066L1.0361,0.1364L0.9994,0.1650L0.9784,0.1946L0.9865,0.2300L1.0098,0.2706L1.0412,0.3158L1.0714,0.3637L1.0916,0.4108L1.0957,0.4538L1.0624,0.4814L1.0148,0.5004L0.9595,0.5129L0.9054,0.5227L0.8602,0.5349L0.8295,0.5542L0.8228,0.5896L0.8275,0.6349L0.8375,0.6873L0.8456,0.7415L0.8450,0.7915L0.8319,0.8319L0.7915,0.8450L0.7415,0.8456L0.6873,0.8375L0.6349,0.8275L0.5896,0.8228L0.5542,0.8295L0.5349,0.8602L0.5226,0.9052L0.5128,0.9593L0.5003,1.0144L0.4812,1.0619L0.4536,1.0952L0.4107,1.0911L0.3636,1.0710L0.3158,1.0409L0.2705,1.0097L0.2300,0.9865L0.1946,0.9784L0.1650,0.9996L0.1365,1.0370L0.1067,1.0838L0.0741,1.1305L0.0382,1.1676L0.0000,1.1880L-0.0382,1.1676L-0.0741,1.1305L-0.1067,1.0838L-0.1365,1.0370L-0.1650,0.9996L-0.1946,0.9784L-0.2300,0.9863L-0.2704,1.0091L-0.3155,1.0399L-0.3631,1.0696L-0.4100,1.0893L-0.4528,1.0932L-0.4803,1.0601L-0.4996,1.0130L-0.5123,0.9584L-0.5224,0.9048L-0.5348,0.8601L-0.5542,0.8295L-0.5899,0.8233L-0.6361,0.8289L-0.6895,0.8402L-0.7449,0.8494L-0.7959,0.8498L-0.8370,0.8370L-0.8498,0.7959L-0.8494,0.7449L-0.8402,0.6895L-0.8289,0.6361L-0.8233,0.5899L-0.8295,0.5542L-0.8595,0.5345L-0.9031,0.5214L-0.9552,0.5106L-1.0083,0.4972L-1.0541,0.4776L-1.0863,0.4499L-1.0830,0.4076L-1.0645,0.3614L-1.0365,0.3144L-1.0073,0.2699L-0.9857,0.2298L-0.9784,0.1946L-0.9985,0.1649L-1.0335,0.1361L-1.0771,0.1061L-1.1206,0.0734L-1.1550,0.0378L-1.1740,0.0000L-1.1550,-0.0378L-1.1206,-0.0734L-1.0771,-0.1061L-1.0335,-0.1361L-0.9985,-0.1649L-0.9784,-0.1946L-0.9864,-0.2300L-1.0095,-0.2705L-1.0406,-0.3157L-1.0706,-0.3634L-1.0906,-0.4105L-1.0945,-0.4534L-1.0614,-0.4809L-1.0140,-0.5000L-0.9590,-0.5126L-0.9051,-0.5226L-0.8602,-0.5349L-0.8295,-0.5542L-0.8237,-0.5903L-0.8303,-0.6371L-0.8427,-0.6916L-0.8530,-0.7480L-0.8541,-0.8000L-0.8417,-0.8417L-0.8000,-0.8541L-0.7480,-0.8530L-0.6916,-0.8427L-0.6371,-0.8303L-0.5903,-0.8237L-0.5542,-0.8295L-0.5354,-0.8611L-0.5242,-0.9080L-0.5156,-0.9646L-0.5041,-1.0223L-0.4857,-1.0720L-0.4584,-1.1066L-0.4146,-1.1015L-0.3664,-1.0794L-0.3175,-1.0466L-0.2714,-1.0127L-0.2302,-0.9875L-0.1946,-0.9784L-0.1652,-1.0003L-0.1368,-1.0391L-0.1071,-1.0877L-0.0745,-1.1363L-0.0385,-1.1749L-0.0000,-1.1962L0.0385,-1.1749L0.0745,-1.1363L0.1071,-1.0877L0.1368,-1.0391L0.1652,-1.0003L0.1946,-0.9784L0.2300,-0.9864L0.2704,-1.0093L0.3155,-1.0402L0.3632,-1.0700L0.4102,-1.0898L0.4531,-1.0938L0.4806,-1.0607L0.4998,-1.0134L0.5124,-0.9587L0.5224,-0.9049L0.5348,-0.8601L0.5542,-0.8295L0.5901,-0.8235L0.6365,-0.8295L0.6904,-0.8413L0.7463,-0.8510L0.7977,-0.8516L0.8390,-0.8390L0.8516,-0.7977L0.8510,-0.7463L0.8413,-0.6904L0.8295,-0.6365L0.8235,-0.5901L0.8295,-0.5542L0.8612,-0.5355L0.9084,-0.5245L0.9655,-0.5160L1.0236,-0.5048L1.0738,-0.4865L1.1086,-0.4592L1.1033,-0.4152L1.0808,-0.3669L1.0476,-0.3178L1.0132,-0.2715L0.9877,-0.2303L0.9784,-0.1946L0.9994,-0.1650L1.0361,-0.1364L1.0821,-0.1066L1.1280,-0.0739L1.1644,-0.0381Z" transform="translate(390 512) rotate(-9) scale(254)"/>
    </clipPath>
  </defs>
  <rect x="32" y="32" width="960" height="960" rx="224" fill="url(#background)"/>
  <rect x="48" y="48" width="928" height="928" rx="208" fill="none" stroke="#10231e" stroke-opacity="0.1" stroke-width="4"/>
  <circle cx="512" cy="512" r="326" fill="#ffffff" fill-opacity="0.26"/>
  <path d="M1.1845,0.0000L1.1644,0.0381L1.1280,0.0739L1.0821,0.1066L1.0361,0.1364L0.9994,0.1650L0.9784,0.1946L0.9865,0.2300L1.0098,0.2706L1.0412,0.3158L1.0714,0.3637L1.0916,0.4108L1.0957,0.4538L1.0624,0.4814L1.0148,0.5004L0.9595,0.5129L0.9054,0.5227L0.8602,0.5349L0.8295,0.5542L0.8228,0.5896L0.8275,0.6349L0.8375,0.6873L0.8456,0.7415L0.8450,0.7915L0.8319,0.8319L0.7915,0.8450L0.7415,0.8456L0.6873,0.8375L0.6349,0.8275L0.5896,0.8228L0.5542,0.8295L0.5349,0.8602L0.5226,0.9052L0.5128,0.9593L0.5003,1.0144L0.4812,1.0619L0.4536,1.0952L0.4107,1.0911L0.3636,1.0710L0.3158,1.0409L0.2705,1.0097L0.2300,0.9865L0.1946,0.9784L0.1650,0.9996L0.1365,1.0370L0.1067,1.0838L0.0741,1.1305L0.0382,1.1676L0.0000,1.1880L-0.0382,1.1676L-0.0741,1.1305L-0.1067,1.0838L-0.1365,1.0370L-0.1650,0.9996L-0.1946,0.9784L-0.2300,0.9863L-0.2704,1.0091L-0.3155,1.0399L-0.3631,1.0696L-0.4100,1.0893L-0.4528,1.0932L-0.4803,1.0601L-0.4996,1.0130L-0.5123,0.9584L-0.5224,0.9048L-0.5348,0.8601L-0.5542,0.8295L-0.5899,0.8233L-0.6361,0.8289L-0.6895,0.8402L-0.7449,0.8494L-0.7959,0.8498L-0.8370,0.8370L-0.8498,0.7959L-0.8494,0.7449L-0.8402,0.6895L-0.8289,0.6361L-0.8233,0.5899L-0.8295,0.5542L-0.8595,0.5345L-0.9031,0.5214L-0.9552,0.5106L-1.0083,0.4972L-1.0541,0.4776L-1.0863,0.4499L-1.0830,0.4076L-1.0645,0.3614L-1.0365,0.3144L-1.0073,0.2699L-0.9857,0.2298L-0.9784,0.1946L-0.9985,0.1649L-1.0335,0.1361L-1.0771,0.1061L-1.1206,0.0734L-1.1550,0.0378L-1.1740,0.0000L-1.1550,-0.0378L-1.1206,-0.0734L-1.0771,-0.1061L-1.0335,-0.1361L-0.9985,-0.1649L-0.9784,-0.1946L-0.9864,-0.2300L-1.0095,-0.2705L-1.0406,-0.3157L-1.0706,-0.3634L-1.0906,-0.4105L-1.0945,-0.4534L-1.0614,-0.4809L-1.0140,-0.5000L-0.9590,-0.5126L-0.9051,-0.5226L-0.8602,-0.5349L-0.8295,-0.5542L-0.8237,-0.5903L-0.8303,-0.6371L-0.8427,-0.6916L-0.8530,-0.7480L-0.8541,-0.8000L-0.8417,-0.8417L-0.8000,-0.8541L-0.7480,-0.8530L-0.6916,-0.8427L-0.6371,-0.8303L-0.5903,-0.8237L-0.5542,-0.8295L-0.5354,-0.8611L-0.5242,-0.9080L-0.5156,-0.9646L-0.5041,-1.0223L-0.4857,-1.0720L-0.4584,-1.1066L-0.4146,-1.1015L-0.3664,-1.0794L-0.3175,-1.0466L-0.2714,-1.0127L-0.2302,-0.9875L-0.1946,-0.9784L-0.1652,-1.0003L-0.1368,-1.0391L-0.1071,-1.0877L-0.0745,-1.1363L-0.0385,-1.1749L-0.0000,-1.1962L0.0385,-1.1749L0.0745,-1.1363L0.1071,-1.0877L0.1368,-1.0391L0.1652,-1.0003L0.1946,-0.9784L0.2300,-0.9864L0.2704,-1.0093L0.3155,-1.0402L0.3632,-1.0700L0.4102,-1.0898L0.4531,-1.0938L0.4806,-1.0607L0.4998,-1.0134L0.5124,-0.9587L0.5224,-0.9049L0.5348,-0.8601L0.5542,-0.8295L0.5901,-0.8235L0.6365,-0.8295L0.6904,-0.8413L0.7463,-0.8510L0.7977,-0.8516L0.8390,-0.8390L0.8516,-0.7977L0.8510,-0.7463L0.8413,-0.6904L0.8295,-0.6365L0.8235,-0.5901L0.8295,-0.5542L0.8612,-0.5355L0.9084,-0.5245L0.9655,-0.5160L1.0236,-0.5048L1.0738,-0.4865L1.1086,-0.4592L1.1033,-0.4152L1.0808,-0.3669L1.0476,-0.3178L1.0132,-0.2715L0.9877,-0.2303L0.9784,-0.1946L0.9994,-0.1650L1.0361,-0.1364L1.0821,-0.1066L1.1280,-0.0739L1.1644,-0.0381Z" transform="translate(390 512) rotate(-9) scale(254)" fill="#ff5b68" fill-opacity="0.08" stroke="url(#warm-line)" stroke-width="0.19" stroke-linejoin="round"/>
  <path d="M1.0674,0.0000L1.0577,0.0346L1.0366,0.0679L1.0087,0.0993L0.9801,0.1290L0.9569,0.1580L0.9435,0.1877L0.9446,0.2202L0.9550,0.2559L0.9703,0.2943L0.9843,0.3341L0.9912,0.3730L0.9869,0.4088L0.9646,0.4371L0.9323,0.4597L0.8943,0.4780L0.8563,0.4944L0.8236,0.5122L0.7998,0.5344L0.7885,0.5650L0.7848,0.6022L0.7845,0.6439L0.7826,0.6863L0.7742,0.7252L0.7567,0.7567L0.7252,0.7742L0.6863,0.7826L0.6439,0.7845L0.6022,0.7848L0.5650,0.7885L0.5344,0.7998L0.5123,0.8238L0.4947,0.8568L0.4785,0.8952L0.4605,0.9337L0.4379,0.9665L0.4096,0.9890L0.3738,0.9931L0.3347,0.9859L0.2947,0.9714L0.2561,0.9556L0.2203,0.9447L0.1877,0.9435L0.1579,0.9566L0.1289,0.9792L0.0992,1.0069L0.0678,1.0340L0.0345,1.0544L0.0000,1.0637L-0.0345,1.0544L-0.0678,1.0340L-0.0992,1.0069L-0.1289,0.9792L-0.1579,0.9566L-0.1877,0.9435L-0.2203,0.9448L-0.2561,0.9558L-0.2948,0.9718L-0.3349,0.9865L-0.3741,0.9939L-0.4100,0.9898L-0.4383,0.9673L-0.4608,0.9343L-0.4787,0.8956L-0.4948,0.8570L-0.5123,0.8238L-0.5344,0.7998L-0.5646,0.7879L-0.6006,0.7827L-0.6406,0.7805L-0.6812,0.7768L-0.7185,0.7672L-0.7492,0.7492L-0.7672,0.7185L-0.7768,0.6812L-0.7805,0.6406L-0.7827,0.6006L-0.7879,0.5646L-0.7998,0.5344L-0.8231,0.5118L-0.8543,0.4933L-0.8904,0.4759L-0.9265,0.4569L-0.9573,0.4337L-0.9787,0.4054L-0.9836,0.3702L-0.9782,0.3321L-0.9662,0.2931L-0.9529,0.2553L-0.9439,0.2201L-0.9435,0.1877L-0.9572,0.1580L-0.9811,0.1292L-1.0107,0.0995L-1.0396,0.0681L-1.0614,0.0347L-1.0714,0.0000L-1.0614,-0.0347L-1.0396,-0.0681L-1.0107,-0.0995L-0.9811,-0.1292L-0.9572,-0.1580L-0.9435,-0.1877L-0.9440,-0.2201L-0.9533,-0.2554L-0.9669,-0.2933L-0.9792,-0.3324L-0.9849,-0.3707L-0.9801,-0.4060L-0.9585,-0.4343L-0.9275,-0.4574L-0.8911,-0.4763L-0.8547,-0.4934L-0.8232,-0.5119L-0.7998,-0.5344L-0.7885,-0.5650L-0.7849,-0.6023L-0.7847,-0.6440L-0.7828,-0.6865L-0.7745,-0.7254L-0.7569,-0.7569L-0.7254,-0.7745L-0.6865,-0.7828L-0.6440,-0.7847L-0.6023,-0.7849L-0.5650,-0.7885L-0.5344,-0.7998L-0.5120,-0.8234L-0.4939,-0.8554L-0.4771,-0.8926L-0.4585,-0.9298L-0.4356,-0.9615L-0.4073,-0.9834L-0.3718,-0.9879L-0.3332,-0.9817L-0.2938,-0.9686L-0.2557,-0.9541L-0.2202,-0.9443L-0.1877,-0.9435L-0.1578,-0.9561L-0.1287,-0.9773L-0.0988,-1.0033L-0.0674,-1.0286L-0.0343,-1.0476L-0.0000,-1.0563L0.0343,-1.0476L0.0674,-1.0286L0.0988,-1.0033L0.1287,-0.9773L0.1578,-0.9561L0.1877,-0.9435L0.2201,-0.9441L0.2555,-0.9536L0.2935,-0.9675L0.3327,-0.9801L0.3711,-0.9860L0.4065,-0.9813L0.4348,-0.9596L0.4578,-0.9283L0.4766,-0.8916L0.4936,-0.8549L0.5119,-0.8233L0.5344,-0.7998L0.5648,-0.7882L0.6014,-0.7837L0.6421,-0.7825L0.6836,-0.7795L0.7217,-0.7705L0.7528,-0.7528L0.7705,-0.7217L0.7795,-0.6836L0.7825,-0.6421L0.7837,-0.6014L0.7882,-0.5648L0.7998,-0.5344L0.8237,-0.5122L0.8565,-0.4945L0.8948,-0.4783L0.9331,-0.4601L0.9657,-0.4375L0.9880,-0.4093L0.9922,-0.3734L0.9852,-0.3344L0.9709,-0.2945L0.9554,-0.2560L0.9447,-0.2203L0.9435,-0.1877L0.9569,-0.1580L0.9801,-0.1290L1.0087,-0.0993L1.0366,-0.0679L1.0577,-0.0346Z" transform="translate(634 512) rotate(9) scale(254)" fill="#5dffb0" fill-opacity="0.08" stroke="url(#cool-line)" stroke-width="0.19" stroke-linejoin="round"/>
  <path d="M1.0674,0.0000L1.0577,0.0346L1.0366,0.0679L1.0087,0.0993L0.9801,0.1290L0.9569,0.1580L0.9435,0.1877L0.9446,0.2202L0.9550,0.2559L0.9703,0.2943L0.9843,0.3341L0.9912,0.3730L0.9869,0.4088L0.9646,0.4371L0.9323,0.4597L0.8943,0.4780L0.8563,0.4944L0.8236,0.5122L0.7998,0.5344L0.7885,0.5650L0.7848,0.6022L0.7845,0.6439L0.7826,0.6863L0.7742,0.7252L0.7567,0.7567L0.7252,0.7742L0.6863,0.7826L0.6439,0.7845L0.6022,0.7848L0.5650,0.7885L0.5344,0.7998L0.5123,0.8238L0.4947,0.8568L0.4785,0.8952L0.4605,0.9337L0.4379,0.9665L0.4096,0.9890L0.3738,0.9931L0.3347,0.9859L0.2947,0.9714L0.2561,0.9556L0.2203,0.9447L0.1877,0.9435L0.1579,0.9566L0.1289,0.9792L0.0992,1.0069L0.0678,1.0340L0.0345,1.0544L0.0000,1.0637L-0.0345,1.0544L-0.0678,1.0340L-0.0992,1.0069L-0.1289,0.9792L-0.1579,0.9566L-0.1877,0.9435L-0.2203,0.9448L-0.2561,0.9558L-0.2948,0.9718L-0.3349,0.9865L-0.3741,0.9939L-0.4100,0.9898L-0.4383,0.9673L-0.4608,0.9343L-0.4787,0.8956L-0.4948,0.8570L-0.5123,0.8238L-0.5344,0.7998L-0.5646,0.7879L-0.6006,0.7827L-0.6406,0.7805L-0.6812,0.7768L-0.7185,0.7672L-0.7492,0.7492L-0.7672,0.7185L-0.7768,0.6812L-0.7805,0.6406L-0.7827,0.6006L-0.7879,0.5646L-0.7998,0.5344L-0.8231,0.5118L-0.8543,0.4933L-0.8904,0.4759L-0.9265,0.4569L-0.9573,0.4337L-0.9787,0.4054L-0.9836,0.3702L-0.9782,0.3321L-0.9662,0.2931L-0.9529,0.2553L-0.9439,0.2201L-0.9435,0.1877L-0.9572,0.1580L-0.9811,0.1292L-1.0107,0.0995L-1.0396,0.0681L-1.0614,0.0347L-1.0714,0.0000L-1.0614,-0.0347L-1.0396,-0.0681L-1.0107,-0.0995L-0.9811,-0.1292L-0.9572,-0.1580L-0.9435,-0.1877L-0.9440,-0.2201L-0.9533,-0.2554L-0.9669,-0.2933L-0.9792,-0.3324L-0.9849,-0.3707L-0.9801,-0.4060L-0.9585,-0.4343L-0.9275,-0.4574L-0.8911,-0.4763L-0.8547,-0.4934L-0.8232,-0.5119L-0.7998,-0.5344L-0.7885,-0.5650L-0.7849,-0.6023L-0.7847,-0.6440L-0.7828,-0.6865L-0.7745,-0.7254L-0.7569,-0.7569L-0.7254,-0.7745L-0.6865,-0.7828L-0.6440,-0.7847L-0.6023,-0.7849L-0.5650,-0.7885L-0.5344,-0.7998L-0.5120,-0.8234L-0.4939,-0.8554L-0.4771,-0.8926L-0.4585,-0.9298L-0.4356,-0.9615L-0.4073,-0.9834L-0.3718,-0.9879L-0.3332,-0.9817L-0.2938,-0.9686L-0.2557,-0.9541L-0.2202,-0.9443L-0.1877,-0.9435L-0.1578,-0.9561L-0.1287,-0.9773L-0.0988,-1.0033L-0.0674,-1.0286L-0.0343,-1.0476L-0.0000,-1.0563L0.0343,-1.0476L0.0674,-1.0286L0.0988,-1.0033L0.1287,-0.9773L0.1578,-0.9561L0.1877,-0.9435L0.2201,-0.9441L0.2555,-0.9536L0.2935,-0.9675L0.3327,-0.9801L0.3711,-0.9860L0.4065,-0.9813L0.4348,-0.9596L0.4578,-0.9283L0.4766,-0.8916L0.4936,-0.8549L0.5119,-0.8233L0.5344,-0.7998L0.5648,-0.7882L0.6014,-0.7837L0.6421,-0.7825L0.6836,-0.7795L0.7217,-0.7705L0.7528,-0.7528L0.7705,-0.7217L0.7795,-0.6836L0.7825,-0.6421L0.7837,-0.6014L0.7882,-0.5648L0.7998,-0.5344L0.8237,-0.5122L0.8565,-0.4945L0.8948,-0.4783L0.9331,-0.4601L0.9657,-0.4375L0.9880,-0.4093L0.9922,-0.3734L0.9852,-0.3344L0.9709,-0.2945L0.9554,-0.2560L0.9447,-0.2203L0.9435,-0.1877L0.9569,-0.1580L0.9801,-0.1290L1.0087,-0.0993L1.0366,-0.0679L1.0577,-0.0346Z" transform="translate(634 512) rotate(9) scale(254)" clip-path="url(#echo-left)" fill="none" stroke="#183c35" stroke-opacity="0.76" stroke-width="0.19" stroke-linejoin="round"/>
  <circle cx="512" cy="512" r="43" fill="#16332d"/>
  <circle cx="498" cy="496" r="11" fill="#ffffff" fill-opacity="0.82"/>
</svg>
